<?xml version="1.0" standalone="no"?>
<!DOCTYPE svg PUBLIC "-//W3C//DTD SVG 20010904//EN"
 "http://www.w3.org/TR/2001/REC-SVG-20010904/DTD/svg10.dtd">
<svg version="1.0" xmlns="http://www.w3.org/2000/svg"
 width="301.000000pt" height="301.000000pt" viewBox="0 0 301.000000 301.000000"
 preserveAspectRatio="xMidYMid meet">
<metadata>
Created by potrace 1.11, written by Peter Selinger 2001-2013
</metadata>
<g transform="translate(0.000000,301.000000) scale(0.100000,-0.100000)"
fill="#000000" stroke="none">
<path d="M1437 3005 c-1 -2 -36 -5 -77 -9 -81 -6 -99 -9 -197 -32 -302 -70
-560 -225 -783 -470 -178 -195 -314 -489 -356 -769 -14 -90 -20 -303 -10 -365
2 -14 7 -50 10 -80 34 -264 180 -572 370 -781 119 -133 284 -258 444 -338 75
-38 260 -106 316 -117 11 -2 32 -6 46 -9 93 -20 159 -27 290 -30 379 -9 760
139 1041 403 241 226 388 495 454 827 25 127 25 505 -1 546 -2 4 -6 24 -10 45
-19 125 -121 368 -209 499 -75 111 -102 144 -210 251 -235 233 -544 380 -884
420 -51 6 -229 12 -234 9z m165 -119 c482 -25 927 -322 1148 -766 217 -435
190 -943 -72 -1360 -66 -105 -87 -131 -208 -250 -198 -197 -455 -327 -740
-375 -130 -22 -356 -22 -440 0 -8 2 -34 7 -57 10 -23 3 -77 16 -120 29 -463
139 -830 520 -947 983 -36 142 -44 220 -41 383 9 504 294 961 744 1193 168 87
342 138 516 152 44 4 82 8 83 10 2 2 9 2 15 0 7 -2 60 -6 119 -9z"/>
<path d="M1489 2546 c-2 -2 -33 -6 -69 -9 -89 -8 -201 -45 -285 -95 -65 -38
-135 -94 -135 -107 0 -15 48 -68 68 -76 19 -7 32 -2 75 30 212 160 494 166
708 16 86 -61 87 -61 125 -24 19 18 34 41 34 51 0 24 -107 103 -195 143 -78
36 -145 55 -220 61 -27 3 -62 7 -76 9 -15 2 -28 3 -30 1z"/>
<path d="M1383 2275 c-96 -27 -203 -92 -203 -124 1 -15 40 -59 68 -75 7 -5 33
5 62 24 124 80 268 80 393 0 26 -16 51 -30 56 -30 4 0 25 16 45 36 34 33 36
38 23 58 -21 31 -89 75 -155 98 -75 27 -218 33 -289 13z"/>
<path d="M1463 2026 c-62 -28 -75 -108 -26 -158 36 -36 81 -42 122 -17 108 65
20 226 -96 175z"/>
<path d="M1055 1828 c-71 -15 -116 -66 -128 -146 -3 -19 -7 -35 -9 -37 -2 -2
-42 -5 -89 -8 -98 -5 -138 -22 -172 -77 -19 -30 -22 -51 -24 -159 -1 -68 -4
-130 -7 -137 -3 -8 -20 -14 -40 -14 -19 0 -38 -6 -42 -12 -12 -18 -12 -150 -2
-171 7 -13 17 -18 34 -14 46 8 53 -9 55 -133 2 -156 22 -204 104 -241 27 -13
64 -19 113 -19 39 0 72 -3 73 -7 5 -55 19 -91 45 -123 43 -50 78 -63 176 -63
105 1 159 25 195 88 22 38 23 50 23 261 0 193 2 223 16 228 23 9 274 7 275 -1
1 -5 2 -105 3 -224 2 -182 5 -223 19 -256 32 -69 108 -103 221 -97 115 6 166
42 189 134 l14 55 84 5 c91 6 133 24 168 70 29 40 37 84 35 200 -2 112 1 120
46 120 42 0 50 17 50 106 0 87 -4 94 -55 94 -13 0 -27 6 -32 13 -4 6 -8 66 -9
132 -1 87 -5 129 -17 150 -33 65 -79 88 -187 95 l-85 5 -7 43 c-17 103 -74
143 -206 144 -95 1 -123 -5 -164 -35 -56 -41 -62 -71 -63 -314 0 -122 -4 -225
-7 -228 -8 -9 -264 -9 -277 -1 -7 5 -11 78 -11 226 0 130 -4 230 -11 247 -15
39 -57 81 -95 93 -40 14 -151 18 -199 8z m153 -152 c5 -3 9 -215 10 -513 0
-409 -2 -512 -13 -529 -11 -18 -22 -21 -65 -19 -28 1 -55 6 -61 12 -7 7 -12
460 -9 1006 0 30 5 39 22 46 24 9 100 7 116 -3z m732 -7 c4 -6 8 -241 8 -521
-1 -486 -1 -509 -19 -522 -24 -16 -109 -13 -120 5 -5 8 -8 246 -6 529 l2 514
25 6 c37 10 102 3 110 -11z m-1030 -189 c22 -14 22 -646 0 -660 -19 -12 -101
-12 -120 0 -22 14 -22 646 0 660 19 12 101 12 120 0z m1320 -9 c15 -29 14
-633 -2 -649 -16 -16 -113 -16 -126 1 -14 17 -16 620 -2 647 15 29 114 29 130
1z"/>
</g>
</svg>
