<svg xmlns="http://www.w3.org/2000/svg" viewBox="0 0 215.5 215.5"><defs><style>.cls-1{fill:#4f4f4f;}.cls-2{fill:none;stroke:#4f4f4f;stroke-miterlimit:10;stroke-width:8px;}</style></defs><title>logo-round-gray</title><g id="Capa_2" data-name="Capa 2"><g id="Capa_1-2" data-name="Capa 1"><path class="cls-1" d="M177.54,130.39c0-4-.06-4.17-4-4.14-2.32,0-3.08-.93-3-3.14.09-4.41.08-8.83,0-13.25a11.74,11.74,0,0,0-11.64-11.64,59.06,59.06,0,0,0-6,0c-2.44.2-3.34-.63-3.44-3.19a11.64,11.64,0,0,0-11.12-10.81c-2.91-.09-5.84-.1-8.75,0A11.57,11.57,0,0,0,118.48,95.6c-.06,4.5,0,9,0,13.5s0,9,0,13.5c0,3.39-.21,3.6-3.49,3.61q-7.12,0-14.25,0c-3.48,0-3.66-.19-3.66-3.69,0-8.58,0-17.17,0-25.75,0-7.62-4.94-12.52-12.5-12.56q-3,0-6,0c-7.4,0-12.06,4.31-12.54,11.68-.11,1.71-.78,2.37-2.45,2.33-2.33-.06-4.67,0-7,0A11.61,11.61,0,0,0,45,109.88c0,4.08,0,8.17,0,12.25,0,3.93,0,4-4,4-2.12,0-3.06.83-3,3s0,4.5,0,6.75c0,4.07.12,4.29,4.19,4.26,2.26,0,2.88.94,2.83,3-.09,4.16,0,8.33,0,12.5a12.18,12.18,0,0,0,12.17,12.51,60.19,60.19,0,0,0,6.5,0c1.81-.14,2.27.6,2.36,2.27a11.92,11.92,0,0,0,10.9,11.64,46.12,46.12,0,0,0,8.48,0c7.93-.63,12-6.88,11.74-13.25-.31-8.49,0-17-.12-25.5,0-2.41.84-3.21,3.21-3.15,5,.13,10,0,15,0,3.08,0,3.24.16,3.25,3.27,0,8.83,0,17.67,0,26.5A11.78,11.78,0,0,0,128,181.81a29.7,29.7,0,0,0,10,.23c7.27-.82,10.88-4.63,11.59-12,.15-1.53.76-2,2.22-1.89,1.91.12,3.83.05,5.75,0,8.38-.05,13.71-6.31,13.1-13.45-.3-3.56-.06-7.16-.05-10.75s0-3.72,3.73-3.77c2.34,0,3.35-1,3.28-3.34S177.55,132.55,177.54,130.39ZM66,152.59c0,4.66-.48,5.11-5.17,5.11-.67,0-1.33,0-2,0-3-.08-3.7-.76-3.72-3.73,0-6.83,0-13.66,0-20.49,0-6.66,0-13.33,0-20,0-4.34.47-4.77,4.66-4.78,6.25,0,6.25,0,6.25,6.15Q66,133.73,66,152.59ZM86.78,169.2c-1.24,4.27-4.82,2-7.39,2.44-2.06.32-3.31-.84-3.33-3s0-4.17,0-6.25q0-14.5,0-29,0-16.75,0-33.49c0-4.83.34-5.15,5-5.15,5.87,0,5.87,0,5.87,5.78q0,32.74,0,65.48A11.84,11.84,0,0,1,86.78,169.2Zm52.68-3.6c0,1,0,2-.06,3-.12,2.11-1.21,3-3.37,3.13-7.33.29-7.48.19-7.48-7q0-15.75,0-31.49,0-16.62,0-33.24c0-5,.31-5.27,5.17-5.28,5.71,0,5.74,0,5.74,5.66Q139.46,133,139.46,165.6Zm21-13c0,4.65-.48,5.1-5.18,5.11-.67,0-1.33,0-2,0-3-.08-3.7-.76-3.72-3.74,0-6.91,0-13.83,0-20.74,0-6.58,0-13.16,0-19.74,0-4.34.46-4.77,4.66-4.78,6.24,0,6.25,0,6.25,6.16Q160.46,133.73,160.46,152.6Z"/><path class="cls-1" d="M108.09,33.15a52.1,52.1,0,0,1,33.37,12.24c.63.52,1.28,1,1.85,1.62a1.74,1.74,0,0,1,.07,2.65q-1.81,1.94-3.76,3.76c-.93.88-1.93.73-3.22-.4a39.79,39.79,0,0,0-6.5-4.7c-12.75-7.27-25.93-8-39.48-2.51a41.05,41.05,0,0,0-11.15,7c-1.86,1.59-2.71,1.57-4.41-.15-.91-.92-1.77-1.89-2.64-2.85a1.85,1.85,0,0,1,.06-2.95,43.49,43.49,0,0,1,9.82-7.14A52.32,52.32,0,0,1,108.09,33.15Z"/><path class="cls-1" d="M107,51.32a34.82,34.82,0,0,1,20.82,6.33,27.69,27.69,0,0,1,2.52,2c1.21,1.07,1.23,2.06.12,3.21-.9.93-1.83,1.84-2.74,2.75-1.68,1.67-2.23,1.72-4.07.3a25.58,25.58,0,0,0-31.56-.16c-2.06,1.55-2.54,1.58-4.36-.24-.82-.82-1.65-1.64-2.47-2.47-1.42-1.44-1.47-2.1,0-3.44a31.42,31.42,0,0,1,14.86-7.47A26.27,26.27,0,0,1,107,51.32Z"/><path class="cls-1" d="M114.89,76.82A7.2,7.2,0,0,1,107.7,84a7.46,7.46,0,0,1-7.26-7.46,7.27,7.27,0,0,1,7.36-7A7.07,7.07,0,0,1,114.89,76.82Z"/><circle class="cls-2" cx="107.75" cy="107.75" r="103.75"/></g></g></svg>